<svg xmlns="http://www.w3.org/2000/svg" viewBox="0 0 424.75 188.02"><defs><style>.cls-1,.cls-2,.cls-3{fill:none;stroke-linejoin:round;}.cls-1{stroke:#e7e3da;}.cls-1,.cls-3{stroke-width:24px;}.cls-2{stroke:#fff;stroke-width:28px;}.cls-3{stroke:#fec700;}</style></defs><g id="Layer_2" data-name="Layer 2"><g id="Layer_1-2" data-name="Layer 1"><path class="cls-1" d="M.09,16.57A92.9,92.9,0,0,1,53,33.05c25.6,18,41.05,43.49,56.75,68,22.49,35,50.76,73.35,103.11,73,68.1-.46,92.69-63.36,123.32-104.64,10-13.45,21.21-26.17,35.65-36.33a92.93,92.93,0,0,1,52.87-16.48"/><path class="cls-2" d="M.09,171.45A92.9,92.9,0,0,0,53,155c25.6-18,41.05-43.49,56.75-68,22.49-35,50.76-73.35,103.11-73,68.1.46,92.69,63.36,123.32,104.64,10,13.45,21.21,26.17,35.65,36.33a92.93,92.93,0,0,0,52.87,16.48"/><path class="cls-3" d="M.09,171.45A92.9,92.9,0,0,0,53,155c25.6-18,41.05-43.49,56.75-68,22.49-35,50.76-73.35,103.11-73,68.1.46,92.69,63.36,123.32,104.64,10,13.45,21.21,26.17,35.65,36.33a92.93,92.93,0,0,0,52.87,16.48"/><path class="cls-2" d="M212.82,174c68.1-.46,92.69-63.36,123.32-104.64,10-13.45,21.21-26.17,35.65-36.33a92.93,92.93,0,0,1,52.87-16.48"/><path class="cls-1" d="M212.82,174c68.1-.46,92.69-63.36,123.32-104.64,10-13.45,21.21-26.17,35.65-36.33a92.93,92.93,0,0,1,52.87-16.48"/></g></g></svg>